<svg xmlns="http://www.w3.org/2000/svg" width="16" height="16" fill="none" viewBox="0 0 16 16">
    <path stroke="#fff" stroke-linecap="round" stroke-linejoin="round" stroke-width="1.2" d="M12.667 2H6c-.736 0-1.333.597-1.333 1.333V10c0 .736.597 1.333 1.333 1.333h6.667c.736 0 1.333-.597 1.333-1.333V3.333C14 2.597 13.403 2 12.667 2z"/>
    <path stroke="#fff" stroke-linecap="round" stroke-linejoin="round" stroke-width="1.2" d="M11.333 11.333v1.334c0 .353-.14.693-.39.943s-.59.39-.943.39H3.333c-.353 0-.692-.14-.942-.39S2 13.02 2 12.667V6c0-.354.14-.693.39-.943s.59-.39.943-.39h1.334"/>
</svg>
