<svg xmlns="http://www.w3.org/2000/svg" width="22" height="22" fill="none" viewBox="0 0 22 22">
    <path fill="#E84D4D" stroke="#E84D4D" stroke-linecap="round" stroke-linejoin="round" d="M13.75 9.167l4.174-2.087c.14-.07.294-.102.45-.095.157.007.308.053.441.135.133.083.243.197.319.334.076.136.116.29.116.446v6.2c0 .156-.04.31-.116.446-.076.137-.186.251-.319.334-.133.082-.284.128-.44.135-.157.007-.312-.026-.451-.095l-4.174-2.087V9.167z"/>
    <path fill="#E84D4D" stroke="#E84D4D" stroke-linecap="round" stroke-linejoin="round" d="M11.917 5.5H4.583c-1.012 0-1.833.82-1.833 1.833v7.334c0 1.012.82 1.833 1.833 1.833h7.334c1.012 0 1.833-.82 1.833-1.833V7.333c0-1.012-.82-1.833-1.833-1.833z"/>
</svg>
