<svg xmlns="http://www.w3.org/2000/svg" width="22" height="20" fill="none" viewBox="0 0 22 20">
    <path stroke="#FDFDFD" stroke-linecap="round" stroke-linejoin="round" stroke-width="1.759" d="M3.659 18.142h15.015c.35-.002.694-.09 1.002-.256.308-.166.571-.405.766-.696.194-.29.315-.625.35-.973.036-.348-.014-.7-.145-1.024L13.032 2.055c-.185-.336-.457-.615-.787-.81-.33-.194-.706-.297-1.09-.297-.383 0-.759.103-1.089.297-.33.195-.602.474-.787.81L1.664 15.193c-.129.317-.18.66-.15 1 .032.342.144.67.327.959.184.288.434.529.73.701.295.173.628.272.97.29M11.166 7.417v4.231m0 2.205v.01"/>
</svg>
