<svg xmlns="http://www.w3.org/2000/svg" width="22" height="22" fill="none" viewBox="0 0 22 22">
    <path stroke="#85859B" stroke-linecap="round" stroke-linejoin="round" stroke-width="1.2" d="M10.033 3.802c.3-.921 1.603-.921 1.902 0l1.098 3.378c.134.412.518.691.951.691h3.552c.969 0 1.372 1.24.588 1.81l-2.874 2.087c-.35.255-.497.706-.363 1.118l1.098 3.378c.299.922-.755 1.688-1.54 1.118l-2.873-2.088c-.35-.254-.825-.254-1.175 0l-2.874 2.088c-.784.57-1.838-.196-1.539-1.118l1.098-3.378c.134-.412-.013-.863-.364-1.118L3.845 9.68c-.784-.57-.381-1.809.588-1.809h3.552c.433 0 .817-.279.95-.69l1.098-3.379zM11.205 8.909V11M11.205 13.09h.007"/>
</svg>
