<svg xmlns="http://www.w3.org/2000/svg" width="37" height="33" fill="none" viewBox="0 0 37 33">
    <path stroke="#FDFDFD" stroke-linecap="round" stroke-linejoin="round" stroke-width="3" d="M5.477 30.89h25.614c.597-.004 1.184-.155 1.71-.438.526-.283.974-.69 1.306-1.187.332-.496.537-1.066.599-1.66.06-.593-.024-1.193-.248-1.747L21.468 3.446c-.317-.572-.78-1.049-1.344-1.38-.563-.333-1.204-.508-1.858-.508-.654 0-1.295.175-1.858.507-.564.332-1.027.81-1.344 1.381L2.074 25.858c-.22.541-.307 1.127-.254 1.708.053.581.244 1.142.557 1.634.314.492.74.903 1.245 1.197.504.294 1.071.463 1.654.493M18.284 12.595v7.217m0 3.76v.018"/>
</svg>
