<svg xmlns="http://www.w3.org/2000/svg" width="16" height="16" fill="none" viewBox="0 0 16 16">
    <path stroke="#39B76E" stroke-linecap="round" stroke-width="1.2" d="M5.49 6.986c1.653 0 2.993-1.34 2.993-2.993C8.483 2.34 7.143 1 5.49 1 3.837 1 2.497 2.34 2.497 3.993c0 1.653 1.34 2.993 2.993 2.993zM1 14.469v-1.497c0-.794.315-1.555.877-2.116.56-.562 1.322-.877 2.116-.877h2.993c.794 0 1.555.315 2.116.877.562.561.877 1.322.877 2.116v1.497M10.727 1.097c.644.165 1.215.54 1.623 1.065.407.525.628 1.17.628 1.835 0 .664-.221 1.31-.628 1.835-.408.525-.979.9-1.623 1.064M14.468 14.469v-1.497c-.003-.66-.226-1.301-.632-1.822-.406-.521-.973-.893-1.612-1.059"/>
</svg>
