<svg xmlns="http://www.w3.org/2000/svg" width="15" height="17" fill="none" viewBox="0 0 15 17">
    <path stroke="#fff" stroke-linecap="round" stroke-linejoin="round" stroke-width="1.2" d="M1 4.333h13M5.875 7.667v5M9.125 7.667v5M1.813 4.333l.812 10c0 .442.171.866.476 1.179.305.312.718.488 1.149.488h6.5c.431 0 .844-.176 1.149-.488.305-.313.476-.737.476-1.179l.813-10"/>
    <path stroke="#fff" stroke-linecap="round" stroke-linejoin="round" stroke-width="1.2" d="M5.063 4.333v-2.5c0-.22.085-.433.237-.589.153-.156.36-.244.575-.244h3.25c.215 0 .422.088.575.244.152.156.238.368.238.59v2.5"/>
</svg>
