<svg xmlns="http://www.w3.org/2000/svg" width="9" height="20" fill="none" viewBox="0 0 9 20">
    <path fill="#85859B" stroke="#85859B" stroke-width=".2" d="M5.998.994H3.306c-1.461 0-2.65 1.188-2.65 2.65v9.066c0 1.462 1.189 2.65 2.65 2.65h.892v2.925H2.235c-.25 0-.454.204-.454.455 0 .25.203.454.454.454h4.833c.251 0 .455-.204.455-.454 0-.251-.204-.455-.455-.455H5.106V15.36h.892c1.46 0 2.65-1.188 2.65-2.65V3.644c0-1.462-1.19-2.65-2.65-2.65zm0 13.458H3.306c-.96 0-1.742-.781-1.742-1.742v-1.245h1.671c.25 0 .454-.204.454-.455 0-.25-.203-.454-.454-.454h-1.67V8.277h1.67c.25 0 .454-.203.454-.454 0-.25-.203-.454-.454-.454h-1.67v-2.28h1.67c.25 0 .454-.203.454-.454 0-.25-.203-.454-.454-.454h-1.67v-.537c0-.96.78-1.742 1.74-1.742h2.693c.96 0 1.741.781 1.741 1.742v.537H6.07c-.251 0-.455.204-.455.454 0 .251.204.455.454.455H7.74v2.279H6.07c-.251 0-.455.203-.455.454 0 .25.204.454.454.454H7.74v2.28H6.07c-.251 0-.455.203-.455.453 0 .251.204.455.454.455H7.74v1.245c0 .96-.781 1.742-1.741 1.742z"/>
</svg>
