<svg xmlns="http://www.w3.org/2000/svg" width="18" height="15" fill="none" viewBox="0 0 18 15">
    <path stroke="#5DDBEE" stroke-width="1.2" d="M9.127 6.676c1.671 0 3.026-1.354 3.026-3.025C12.153 1.98 10.8.625 9.127.625c-1.67 0-3.025 1.355-3.025 3.026 0 1.67 1.354 3.025 3.025 3.025zM4.588 14.24v-1.512c0-.803.32-1.572.887-2.14.567-.567 1.337-.886 2.14-.886h3.025c.802 0 1.572.319 2.14.886.567.568.885 1.337.885 2.14v1.512M13.988 2.672c.557.143 1.05.467 1.403.921s.544 1.013.544 1.588c0 .575-.191 1.133-.544 1.588-.352.454-.846.778-1.403.92M17.223 14.24v-1.294c-.003-.572-.196-1.126-.547-1.577-.351-.45-.842-.772-1.395-.915M4.264 2.672c-.557.143-1.05.467-1.403.921-.352.454-.544 1.013-.544 1.588 0 .575.192 1.133.544 1.588.353.454.846.778 1.403.92M1.03 14.24v-1.294c.003-.572.195-1.126.546-1.577.351-.45.842-.772 1.395-.915"/>
</svg>
