<svg xmlns="http://www.w3.org/2000/svg" width="9" height="20" fill="none" viewBox="0 0 9 20">
    <path fill="#39B76E" stroke="#39B76E" stroke-width=".2" d="M6.242.9H3.55C2.089.9.9 2.089.9 3.55v9.067c0 1.461 1.189 2.65 2.65 2.65h.892v2.925H2.479c-.25 0-.454.203-.454.454 0 .25.203.454.454.454h4.833c.251 0 .455-.203.455-.454s-.204-.454-.455-.454H5.35v-2.925h.892c1.461 0 2.65-1.189 2.65-2.65V3.55C8.892 2.089 7.703.9 6.242.9zm0 13.458H3.55c-.96 0-1.742-.781-1.742-1.741V11.37H3.48c.251 0 .454-.204.454-.454 0-.251-.203-.454-.454-.454H1.81v-2.28h1.67c.251 0 .454-.203.454-.454 0-.25-.203-.454-.454-.454H1.81v-2.28h1.67c.251 0 .454-.202.454-.453s-.203-.454-.454-.454H1.81V3.55c0-.96.78-1.742 1.741-1.742h2.692c.96 0 1.741.782 1.741 1.742v.538h-1.67c-.251 0-.455.203-.455.454 0 .25.204.454.455.454h1.67v2.279h-1.67c-.251 0-.455.203-.455.454s.204.454.455.454h1.67v2.28h-1.67c-.251 0-.455.203-.455.454 0 .25.204.454.455.454h1.67v1.246c0 .96-.781 1.741-1.741 1.741z"/>
</svg>
