<svg xmlns="http://www.w3.org/2000/svg" width="15" height="15" fill="none" viewBox="0 0 15 15">
    <path stroke="#85859B" stroke-width="1.2" d="M5.28 7.486c1.653 0 2.993-1.34 2.993-2.993C8.273 2.84 6.933 1.5 5.28 1.5c-1.653 0-2.993 1.34-2.993 2.993 0 1.653 1.34 2.993 2.993 2.993zM.79 14.969v-1.497c0-.794.315-1.555.877-2.116.561-.562 1.322-.877 2.116-.877h2.993c.794 0 1.555.315 2.117.877.56.56.876 1.322.876 2.116v1.497M10.518 1.597c.643.165 1.214.54 1.621 1.065.408.525.63 1.17.63 1.835 0 .664-.222 1.31-.63 1.835-.407.525-.978.9-1.621 1.064M14.258 14.969v-1.497c-.003-.66-.226-1.301-.632-1.822-.406-.521-.973-.894-1.612-1.059"/>
</svg>
