<svg xmlns="http://www.w3.org/2000/svg" width="15" height="16" fill="none" viewBox="0 0 15 16">
    <path stroke="#85859B" stroke-width="1.2" d="M12.273 2.458h-9.5c-.875 0-1.584.71-1.584 1.584v9.5c0 .874.71 1.583 1.584 1.583h9.5c.874 0 1.583-.709 1.583-1.583v-9.5c0-.875-.709-1.583-1.583-1.583zM10.69.875v3.167M4.356.875v3.167M1.19 7.208h12.666"/>
    <path stroke="#85859B" stroke-width="1.2" d="M4.356 11.166c0 .438.355.792.792.792.437 0 .792-.354.792-.792 0-.437-.355-.791-.792-.791-.437 0-.792.354-.792.791z"/>
</svg>
