<svg xmlns="http://www.w3.org/2000/svg" width="15" height="16" fill="none" viewBox="0 0 15 16">
    <path stroke="#85859B" stroke-width="1.2" d="M12 2.458H2.5c-.875 0-1.584.71-1.584 1.584v9.5c0 .874.709 1.583 1.583 1.583H12c.875 0 1.584-.709 1.584-1.583v-9.5c0-.875-.71-1.583-1.584-1.583zM10.416.875v3.167M4.083.875v3.167M.916 7.208h12.667"/>
    <path stroke="#85859B" stroke-width="1.2" d="M4.083 11.166c0 .438.354.792.792.792.437 0 .791-.354.791-.792 0-.437-.354-.791-.791-.791-.438 0-.792.354-.792.791z"/>
</svg>
