<svg xmlns="http://www.w3.org/2000/svg" width="17" height="17" fill="none" viewBox="0 0 17 17">
    <path stroke="#5DDBEE" stroke-linecap="round" stroke-linejoin="round" stroke-width="1.2" d="M6.013 7.848c1.75 0 3.167-1.417 3.167-3.166 0-1.75-1.418-3.167-3.167-3.167-1.749 0-3.166 1.418-3.166 3.167 0 1.749 1.417 3.166 3.166 3.166zM1.263 15.765v-1.583c0-.84.334-1.646.928-2.24.594-.594 1.399-.927 2.239-.927h3.167c.84 0 1.645.333 2.239.927.594.594.927 1.4.927 2.24v1.583M13.93 5.474v4.75m-2.375-2.375h4.75-4.75z"/>
</svg>
