<svg xmlns="http://www.w3.org/2000/svg" width="16" height="20" fill="none" viewBox="0 0 16 20">
    <path stroke="#85859B" stroke-width="1.9" d="M9.914 3.676c.552 0 1-.447 1-1 0-.552-.448-1-1-1s-1 .448-1 1c0 .553.448 1 1 1z"/>
    <path stroke="#85859B" stroke-width="1.5" d="M.914 15.676l4.251.85c.442.089.889-.13 1.09-.533l.41-.817M11.914 19.676v-3.5c0-.314-.148-.61-.4-.8L8.4 13.041c-.298-.224-.447-.596-.386-.964l.9-5.4"/>
    <path stroke="#85859B" stroke-width="1.5" d="M3.914 10.676v-2.18c0-.477.337-.887.804-.98l3.671-.735c.328-.065.667.037.903.274l2.455 2.454c.11.11.244.193.391.242l2.776.925"/>
</svg>
