<svg xmlns="http://www.w3.org/2000/svg" width="18" height="18" fill="none" viewBox="0 0 18 18">
    <path stroke="#85859B" stroke-width="1.2" d="M9 17c4.418 0 8-3.582 8-8s-3.582-8-8-8-8 3.582-8 8 3.582 8 8 8z"/>
    <path stroke="#85859B" stroke-linecap="round" stroke-width="1.2" d="M11.489 6.333c-.161-.279-.395-.51-.677-.666-.282-.156-.601-.233-.923-.223H8.11c-.471 0-.924.188-1.257.521-.333.334-.52.786-.52 1.257 0 .472.187.924.52 1.257.333.334.786.521 1.257.521h1.778c.471 0 .924.187 1.257.52.333.334.52.786.52 1.258 0 .471-.187.923-.52 1.257-.334.333-.786.52-1.257.52H8.11c-.322.011-.641-.066-.923-.222-.282-.157-.516-.387-.677-.666"/>
    <path stroke="#85859B" stroke-linecap="round" stroke-linejoin="round" stroke-width="1.2" d="M9 12.556v1.777M9 3.667v1.777-1.777z"/>
</svg>
