<svg xmlns="http://www.w3.org/2000/svg" width="23" height="20" fill="none" viewBox="0 0 23 20">
    <path stroke="url(#paint0_linear)" stroke-width="1.2" d="M14.624 2.224c.268-.627.945-1.127 1.592-.911l4.871 1.623c.408.137.684.519.684.95V7.89c0 .552-.448 1-1 1h-1.436c-.552 0-1 .448-1 1v8.16c0 .304-.12.595-.335.81-.215.215-.506.336-.81.336H5.74c-.304 0-.595-.121-.81-.336-.215-.215-.336-.506-.336-.81V9.89c0-.552-.447-1-1-1H2.16c-.552 0-1-.448-1-1V3.885c0-.43.276-.812.684-.949l4.87-1.623c.648-.216 1.325.284 1.593.911.17.4.417.766.73 1.08.644.644 1.518 1.005 2.429 1.005.911 0 1.785-.361 2.43-1.006.312-.313.558-.68.729-1.079z"/>
    <defs>
        <linearGradient id="paint0_linear" x1="11.465" x2="3.001" y1=".874" y2="16.097" gradientUnits="userSpaceOnUse">
            <stop stop-color="#5DDBEE"/>
            <stop offset="1" stop-color="#2280B8"/>
        </linearGradient>
    </defs>
</svg>
