<svg xmlns="http://www.w3.org/2000/svg" width="16" height="14" fill="none" viewBox="0 0 16 14">
    <path stroke="#39B76E" stroke-width="1.2" d="M10.184 1.681c.391-.559 1.08-1.08 1.727-.864l2.54.847c.409.136.684.518.684.949v2.063c0 .552-.448 1-1 1h-.27c-.553 0-1 .447-1 1v5.054c0 .2-.08.393-.222.535-.142.142-.334.221-.535.221H4.54c-.2 0-.393-.08-.535-.221-.142-.142-.221-.335-.221-.535V6.676c0-.553-.448-1-1-1h-.27c-.553 0-1-.448-1-1V2.613c0-.43.275-.813.683-.949l2.54-.847c.648-.216 1.336.305 1.728.864.075.107.16.209.254.303.426.425 1.003.665 1.605.665.602 0 1.18-.24 1.606-.665.094-.094.178-.196.254-.303z"/>
</svg>
