<svg xmlns="http://www.w3.org/2000/svg" width="18" height="16" fill="none" viewBox="0 0 18 16">
    <path stroke="#5DDBEE" stroke-width="1.2" d="M11.142 2.324c.344-.59 1.027-1.101 1.674-.885l3.25 1.083c.409.136.684.518.684.949v2.654c0 .552-.448 1-1 1h-.625c-.552 0-1 .448-1 1v6c0 .232-.092.455-.256.619-.164.164-.387.256-.619.256H4.5c-.232 0-.455-.092-.619-.256-.164-.164-.256-.387-.256-.619v-6c0-.552-.448-1-1-1H2c-.552 0-1-.448-1-1V3.471c0-.43.275-.813.684-.949l3.25-1.083c.647-.216 1.33.295 1.674.885.113.192.25.372.41.532.493.492 1.16.769 1.857.769.696 0 1.364-.277 1.856-.769.16-.16.298-.34.41-.532z"/>
</svg>
